<svg id="visual" viewBox="0 0 900 600" width="900" height="600" xmlns="http://www.w3.org/2000/svg" xmlns:xlink="http://www.w3.org/1999/xlink" version="1.1"><rect x="0" y="0" width="900" height="600" fill="#002233"></rect><path d="M0 461L100 482L200 500L300 489L400 496L500 475L600 445L700 480L800 509L900 452L900 601L800 601L700 601L600 601L500 601L400 601L300 601L200 601L100 601L0 601Z" fill="#00ae88"></path><path d="M0 528L100 503L200 522L300 492L400 513L500 510L600 534L700 500L800 481L900 496L900 601L800 601L700 601L600 601L500 601L400 601L300 601L200 601L100 601L0 601Z" fill="#009188"></path><path d="M0 500L100 542L200 508L300 524L400 499L500 492L600 533L700 515L800 514L900 523L900 601L800 601L700 601L600 601L500 601L400 601L300 601L200 601L100 601L0 601Z" fill="#00747c"></path><path d="M0 561L100 514L200 523L300 551L400 550L500 533L600 540L700 513L800 526L900 560L900 601L800 601L700 601L600 601L500 601L400 601L300 601L200 601L100 601L0 601Z" fill="#005767"></path><path d="M0 545L100 544L200 560L300 572L400 570L500 571L600 547L700 575L800 551L900 537L900 601L800 601L700 601L600 601L500 601L400 601L300 601L200 601L100 601L0 601Z" fill="#003b4e"></path><path d="M0 565L100 570L200 568L300 584L400 582L500 581L600 562L700 589L800 579L900 582L900 601L800 601L700 601L600 601L500 601L400 601L300 601L200 601L100 601L0 601Z" fill="#002233"></path></svg>