<svg id="visual" viewBox="0 0 900 600" width="900" height="600" xmlns="http://www.w3.org/2000/svg" xmlns:xlink="http://www.w3.org/1999/xlink" version="1.1"><rect x="0" y="0" width="900" height="600" fill="#002233"></rect><path d="M0 518L75 514L150 535L225 545L300 514L375 528L450 536L525 528L600 507L675 514L750 496L825 541L900 521L900 601L825 601L750 601L675 601L600 601L525 601L450 601L375 601L300 601L225 601L150 601L75 601L0 601Z" fill="#00ae88"></path><path d="M0 519L75 542L150 520L225 516L300 533L375 549L450 528L525 552L600 519L675 543L750 526L825 516L900 516L900 601L825 601L750 601L675 601L600 601L525 601L450 601L375 601L300 601L225 601L150 601L75 601L0 601Z" fill="#009689"></path><path d="M0 534L75 549L150 538L225 554L300 537L375 534L450 561L525 560L600 555L675 546L750 543L825 555L900 524L900 601L825 601L750 601L675 601L600 601L525 601L450 601L375 601L300 601L225 601L150 601L75 601L0 601Z" fill="#007d81"></path><path d="M0 538L75 558L150 551L225 555L300 560L375 550L450 563L525 559L600 539L675 561L750 545L825 560L900 537L900 601L825 601L750 601L675 601L600 601L525 601L450 601L375 601L300 601L225 601L150 601L75 601L0 601Z" fill="#006572"></path><path d="M0 577L75 571L150 566L225 550L300 564L375 571L450 573L525 574L600 557L675 554L750 575L825 555L900 573L900 601L825 601L750 601L675 601L600 601L525 601L450 601L375 601L300 601L225 601L150 601L75 601L0 601Z" fill="#004d5e"></path><path d="M0 584L75 582L150 575L225 574L300 567L375 578L450 577L525 564L600 584L675 568L750 582L825 565L900 564L900 601L825 601L750 601L675 601L600 601L525 601L450 601L375 601L300 601L225 601L150 601L75 601L0 601Z" fill="#003749"></path><path d="M0 584L75 591L150 577L225 584L300 588L375 577L450 588L525 577L600 577L675 590L750 583L825 580L900 591L900 601L825 601L750 601L675 601L600 601L525 601L450 601L375 601L300 601L225 601L150 601L75 601L0 601Z" fill="#002233"></path></svg>